<svg width="293" height="45" viewBox="0 0 293 45" fill="none" xmlns="http://www.w3.org/2000/svg">
<rect x="13" y="8" width="16" height="12" fill="#D9D9D9"/>
<rect x="13" y="26" width="16" height="11" fill="#D9D9D9"/>
<path fill-rule="evenodd" clip-rule="evenodd" d="M49.2318 8H34.7646V29.3609L49.2318 8ZM36.6821 37H51.2193V15.5356L36.6821 37Z" fill="#D9D9D9"/>
<path d="M87.35 16.575V34H85.075V26.1H76.2V34H73.925V16.575H76.2V24.225H85.075V16.575H87.35ZM100.175 18.425V24.25H106.525V26.125H100.175V32.125H107.275V34H97.8996V16.55H107.275V18.425H100.175ZM127.232 16.575V18.425H119.657V24.3H125.807V26.15H119.657V34H117.382V16.575H127.232ZM147.37 16.575V18.425H142.62V34H140.345V18.425H135.57V16.575H147.37ZM169.035 16.575L163.36 27.425V34H161.085V27.425L155.385 16.575H157.91L162.21 25.4L166.51 16.575H169.035ZM192.5 16.575L185.925 34H183.3L176.725 16.575H179.15L184.625 31.6L190.1 16.575H192.5ZM203.934 18.425V24.25H210.284V26.125H203.934V32.125H211.034V34H201.659V16.55H211.034V18.425H203.934ZM230.317 34L226.167 26.875H223.417V34H221.142V16.575H226.767C228.083 16.575 229.192 16.8 230.092 17.25C231.008 17.7 231.692 18.3083 232.142 19.075C232.592 19.8417 232.817 20.7167 232.817 21.7C232.817 22.9 232.467 23.9583 231.767 24.875C231.083 25.7917 230.05 26.4 228.667 26.7L233.042 34H230.317ZM223.417 25.05H226.767C228 25.05 228.925 24.75 229.542 24.15C230.158 23.5333 230.467 22.7167 230.467 21.7C230.467 20.6667 230.158 19.8667 229.542 19.3C228.942 18.7333 228.017 18.45 226.767 18.45H223.417V25.05ZM248.542 34.175C247.392 34.175 246.358 33.975 245.442 33.575C244.542 33.1583 243.833 32.5917 243.317 31.875C242.8 31.1417 242.533 30.3 242.517 29.35H244.942C245.025 30.1667 245.358 30.8583 245.942 31.425C246.542 31.975 247.408 32.25 248.542 32.25C249.625 32.25 250.475 31.9833 251.092 31.45C251.725 30.9 252.042 30.2 252.042 29.35C252.042 28.6833 251.858 28.1417 251.492 27.725C251.125 27.3083 250.667 26.9917 250.117 26.775C249.567 26.5583 248.825 26.325 247.892 26.075C246.742 25.775 245.817 25.475 245.117 25.175C244.433 24.875 243.842 24.4083 243.342 23.775C242.858 23.125 242.617 22.2583 242.617 21.175C242.617 20.225 242.858 19.3833 243.342 18.65C243.825 17.9167 244.5 17.35 245.367 16.95C246.25 16.55 247.258 16.35 248.392 16.35C250.025 16.35 251.358 16.7583 252.392 17.575C253.442 18.3917 254.033 19.475 254.167 20.825H251.667C251.583 20.1583 251.233 19.575 250.617 19.075C250 18.5583 249.183 18.3 248.167 18.3C247.217 18.3 246.442 18.55 245.842 19.05C245.242 19.5333 244.942 20.2167 244.942 21.1C244.942 21.7333 245.117 22.25 245.467 22.65C245.833 23.05 246.275 23.3583 246.792 23.575C247.325 23.775 248.067 24.0083 249.017 24.275C250.167 24.5917 251.092 24.9083 251.792 25.225C252.492 25.525 253.092 26 253.592 26.65C254.092 27.2833 254.342 28.15 254.342 29.25C254.342 30.1 254.117 30.9 253.667 31.65C253.217 32.4 252.55 33.0083 251.667 33.475C250.783 33.9417 249.742 34.175 248.542 34.175ZM266.63 18.425V24.25H272.98V26.125H266.63V32.125H273.73V34H264.355V16.55H273.73V18.425H266.63Z" fill="white"/>
</svg>
